<svg width="23" height="23" viewBox="0 0 23 23" fill="none" xmlns="http://www.w3.org/2000/svg">
<g clip-path="url(#clip0_0_54)">
<path d="M22.2897 15.5249L19.7981 6.5444C19.266 4.62334 18.1067 2.93545 16.5046 1.74937C14.9024 0.563281 12.9496 -0.05284 10.9569 -0.000937004C8.96423 0.050966 7.04615 0.76791 5.50796 2.03579C3.96977 3.30367 2.89986 5.04962 2.46852 6.99577L0.541316 15.6687C0.448063 16.0889 0.450338 16.5246 0.547972 16.9438C0.645606 17.363 0.836109 17.7549 1.10542 18.0906C1.37474 18.4263 1.716 18.6973 2.10402 18.8835C2.49204 19.0698 2.91692 19.1665 3.34732 19.1666H6.80403C7.02398 20.2498 7.61164 21.2236 8.46744 21.9231C9.32325 22.6226 10.3946 23.0047 11.4999 23.0047C12.6052 23.0047 13.6765 22.6226 14.5323 21.9231C15.3881 21.2236 15.9757 20.2498 16.1957 19.1666H19.5211C19.964 19.1664 20.4008 19.0639 20.7975 18.8671C21.1942 18.6703 21.5401 18.3845 21.8082 18.032C22.0763 17.6795 22.2593 17.2698 22.343 16.835C22.4267 16.4001 22.4088 15.9518 22.2907 15.5249H22.2897ZM11.4999 21.0833C10.9074 21.0808 10.3301 20.8954 9.84702 20.5523C9.36396 20.2092 8.99869 19.7252 8.80119 19.1666H14.1985C14.001 19.7252 13.6358 20.2092 13.1527 20.5523C12.6696 20.8954 12.0924 21.0808 11.4999 21.0833ZM20.283 16.8714C20.1936 16.9899 20.0777 17.0859 19.9446 17.1516C19.8114 17.2174 19.6648 17.251 19.5163 17.2499H3.34732C3.20382 17.2499 3.06216 17.2177 2.93279 17.1556C2.80342 17.0935 2.68965 17.0031 2.59987 16.8912C2.51009 16.7792 2.4466 16.6485 2.41408 16.5088C2.38156 16.369 2.38084 16.2237 2.41198 16.0837L4.33919 7.41073C4.67878 5.88335 5.51919 4.51331 6.72684 3.51841C7.93448 2.52351 9.44004 1.96086 11.0042 1.91988C12.5683 1.8789 14.1013 2.36196 15.3594 3.29227C16.6174 4.22257 17.5284 5.54672 17.9475 7.05423L20.4392 16.0348C20.4799 16.1768 20.4869 16.3263 20.4598 16.4715C20.4327 16.6167 20.3722 16.7536 20.283 16.8714Z" fill="#222223"/>
</g>
<defs>
<clipPath id="clip0_0_54">
<rect width="23" height="23" fill="white"/>
</clipPath>
</defs>
</svg>