<svg width="15" height="15" viewBox="0 0 15 15" fill="none" xmlns="http://www.w3.org/2000/svg">
<g clip-path="url(#clip0_0_1364)">
<path d="M15.0001 4.26922C15.0006 4.35147 14.9848 4.43301 14.9537 4.50916C14.9226 4.58531 14.8768 4.65457 14.8189 4.71297L9.71262 9.81922C9.42233 10.1102 9.07748 10.3411 8.69783 10.4987C8.31817 10.6562 7.91116 10.7373 7.50012 10.7373C7.08907 10.7373 6.68206 10.6562 6.30241 10.4987C5.92275 10.3411 5.5779 10.1102 5.28762 9.81922L0.181366 4.71297C0.123092 4.6547 0.0768663 4.58551 0.0453286 4.50937C0.0137909 4.43324 -0.00244133 4.35163 -0.00244133 4.26922C-0.00244133 4.18681 0.0137909 4.1052 0.0453286 4.02906C0.0768663 3.95292 0.123092 3.88374 0.181366 3.82547C0.23964 3.76719 0.308821 3.72097 0.38496 3.68943C0.461099 3.65789 0.542704 3.64166 0.625116 3.64166C0.707528 3.64166 0.789133 3.65789 0.865272 3.68943C0.94141 3.72097 1.01059 3.76719 1.06887 3.82547L6.17512 8.93172C6.52668 9.28284 7.00324 9.48007 7.50012 9.48007C7.99699 9.48007 8.47355 9.28284 8.82512 8.93172L13.9314 3.82547C13.9895 3.76689 14.0586 3.72039 14.1348 3.68866C14.2109 3.65693 14.2926 3.64059 14.3751 3.64059C14.4576 3.64059 14.5393 3.65693 14.6155 3.68866C14.6916 3.72039 14.7608 3.76689 14.8189 3.82547C14.8768 3.88387 14.9226 3.95313 14.9537 4.02928C14.9848 4.10543 15.0006 4.18696 15.0001 4.26922Z" fill="black"/>
</g>
<defs>
<clipPath id="clip0_0_1364">
<rect width="15" height="15" fill="white" transform="translate(0 15) rotate(-90)"/>
</clipPath>
</defs>
</svg>
