<svg width="15" height="15" viewBox="0 0 15 15" fill="none" xmlns="http://www.w3.org/2000/svg">
<g clip-path="url(#clip0_0_1357)">
<path d="M15.0001 10.7308C15.0006 10.6485 14.9848 10.567 14.9537 10.4908C14.9226 10.4147 14.8768 10.3454 14.8189 10.287L9.71262 5.18078C9.42233 4.88976 9.07748 4.65887 8.69783 4.50133C8.31817 4.34379 7.91116 4.2627 7.50012 4.2627C7.08907 4.2627 6.68206 4.34379 6.30241 4.50133C5.92275 4.65887 5.5779 4.88976 5.28762 5.18078L0.181366 10.287C0.123092 10.3453 0.0768663 10.4145 0.0453286 10.4906C0.0137909 10.5668 -0.00244133 10.6484 -0.00244133 10.7308C-0.00244133 10.8132 0.0137909 10.8948 0.0453286 10.9709C0.0768663 11.0471 0.123092 11.1163 0.181366 11.1745C0.23964 11.2328 0.308821 11.279 0.38496 11.3106C0.461099 11.3421 0.542704 11.3583 0.625116 11.3583C0.707528 11.3583 0.789133 11.3421 0.865272 11.3106C0.94141 11.279 1.01059 11.2328 1.06887 11.1745L6.17512 6.06828C6.52668 5.71716 7.00324 5.51993 7.50012 5.51993C7.99699 5.51993 8.47355 5.71716 8.82512 6.06828L13.9314 11.1745C13.9895 11.2331 14.0586 11.2796 14.1348 11.3113C14.2109 11.3431 14.2926 11.3594 14.3751 11.3594C14.4576 11.3594 14.5393 11.3431 14.6155 11.3113C14.6916 11.2796 14.7608 11.2331 14.8189 11.1745C14.8768 11.1161 14.9226 11.0469 14.9537 10.9707C14.9848 10.8946 15.0006 10.813 15.0001 10.7308Z" fill="black"/>
</g>
<defs>
<clipPath id="clip0_0_1357">
<rect width="15" height="15" fill="white" transform="matrix(1.19249e-08 1 1 -1.19249e-08 0 0)"/>
</clipPath>
</defs>
</svg>
