<svg width="25" height="24" viewBox="0 0 25 24" fill="none" xmlns="http://www.w3.org/2000/svg">
<path d="M9.5 15C9.5 12.1716 9.5 10.7574 10.3787 9.87868C11.2574 9 12.6716 9 15.5 9H16.5C19.3284 9 20.7426 9 21.6213 9.87868C22.5 10.7574 22.5 12.1716 22.5 15V16C22.5 18.8284 22.5 20.2426 21.6213 21.1213C20.7426 22 19.3284 22 16.5 22H15.5C12.6716 22 11.2574 22 10.3787 21.1213C9.5 20.2426 9.5 18.8284 9.5 16V15Z" stroke="black" stroke-width="1.5" stroke-linecap="round" stroke-linejoin="round"/>
<path d="M17.4999 9C17.4975 6.04291 17.4528 4.51121 16.592 3.46243C16.4258 3.25989 16.2401 3.07418 16.0376 2.90796C14.9312 2 13.2875 2 10 2C6.71252 2 5.06878 2 3.96243 2.90796C3.75989 3.07417 3.57418 3.25989 3.40796 3.46243C2.5 4.56878 2.5 6.21252 2.5 9.5C2.5 12.7875 2.5 14.4312 3.40796 15.5376C3.57417 15.7401 3.75989 15.9258 3.96243 16.092C5.01121 16.9528 6.54291 16.9975 9.5 16.9999" stroke="black" stroke-width="1.5" stroke-linecap="round" stroke-linejoin="round"/>
</svg>