<svg width="30" height="31" viewBox="0 0 30 31" fill="none" xmlns="http://www.w3.org/2000/svg">
<path d="M5 25.5001H25M5 25.5001V20.5001L15 10.5001M5 25.5001L10 25.5001L20 15.5001M15 10.5001L18.5858 6.91433L18.5879 6.9122C19.0815 6.4186 19.3288 6.17136 19.6138 6.07876C19.8648 5.99719 20.1353 5.99719 20.3864 6.07876C20.6712 6.17129 20.9181 6.41825 21.411 6.91116L23.5858 9.0859C24.0808 9.58092 24.3284 9.82855 24.4211 10.114C24.5027 10.365 24.5027 10.6354 24.4211 10.8865C24.3284 11.1717 24.0812 11.419 23.5869 11.9133L23.5858 11.9143L20 15.5001M15 10.5001L20 15.5001" stroke="black" stroke-width="2" stroke-linecap="round" stroke-linejoin="round"/>
</svg>