<svg width="25" height="25" viewBox="0 0 25 25" fill="none" xmlns="http://www.w3.org/2000/svg">
<path d="M6.1732 14.8707L5.38209 17.824L2.49062 17.8852C1.6265 16.2824 1.13635 14.4486 1.13635 12.5C1.13635 10.6156 1.59463 8.8386 2.40695 7.27393H2.40757L4.98179 7.74587L6.10945 10.3046C5.87344 10.9927 5.7448 11.7314 5.7448 12.5C5.74488 13.3341 5.89599 14.1333 6.1732 14.8707Z" fill="#FBBB00"/>
<path d="M23.6651 10.3772C23.7956 11.0646 23.8636 11.7745 23.8636 12.5001C23.8636 13.3136 23.7781 14.1072 23.6151 14.8727C23.062 17.4776 21.6165 19.7522 19.6142 21.3618L19.6135 21.3612L16.3712 21.1958L15.9123 18.3311C17.2409 17.5519 18.2793 16.3325 18.8263 14.8727H12.7498V10.3772H18.9149H23.6651Z" fill="#518EF8"/>
<path d="M19.6135 21.3612L19.6141 21.3618C17.6668 22.9271 15.1929 23.8637 12.5 23.8637C8.17248 23.8637 4.41001 21.4449 2.49066 17.8853L6.17323 14.8708C7.13288 17.432 9.60354 19.2552 12.5 19.2552C13.745 19.2552 14.9114 18.9187 15.9122 18.3311L19.6135 21.3612Z" fill="#28B446"/>
<path d="M19.7534 3.75235L16.0721 6.7662C15.0362 6.11874 13.8118 5.74472 12.5 5.74472C9.53798 5.74472 7.02111 7.65155 6.10953 10.3046L2.4076 7.27384H2.40698C4.29823 3.62749 8.10815 1.13623 12.5 1.13623C15.2573 1.13623 17.7854 2.11839 19.7534 3.75235Z" fill="#F14336"/>
</svg>