<svg width="24" height="25" viewBox="0 0 24 25" fill="none" xmlns="http://www.w3.org/2000/svg">
<path d="M3 6.5C3 5.08579 3 4.37868 3.43934 3.93934C3.87868 3.5 4.58579 3.5 6 3.5C7.41421 3.5 8.12132 3.5 8.56066 3.93934C9 4.37868 9 5.08579 9 6.5C9 7.91421 9 8.62132 8.56066 9.06066C8.12132 9.5 7.41421 9.5 6 9.5C4.58579 9.5 3.87868 9.5 3.43934 9.06066C3 8.62132 3 7.91421 3 6.5Z" stroke="black" stroke-width="1.5"/>
<path d="M3 18.5C3 17.0858 3 16.3787 3.43934 15.9393C3.87868 15.5 4.58579 15.5 6 15.5C7.41421 15.5 8.12132 15.5 8.56066 15.9393C9 16.3787 9 17.0858 9 18.5C9 19.9142 9 20.6213 8.56066 21.0607C8.12132 21.5 7.41421 21.5 6 21.5C4.58579 21.5 3.87868 21.5 3.43934 21.0607C3 20.6213 3 19.9142 3 18.5Z" stroke="black" stroke-width="1.5"/>
<path d="M3 12.5H9" stroke="black" stroke-width="1.5" stroke-linecap="round" stroke-linejoin="round"/>
<path d="M12 3.5V8.5" stroke="black" stroke-width="1.5" stroke-linecap="round" stroke-linejoin="round"/>
<path d="M15 6.5C15 5.08579 15 4.37868 15.4393 3.93934C15.8787 3.5 16.5858 3.5 18 3.5C19.4142 3.5 20.1213 3.5 20.5607 3.93934C21 4.37868 21 5.08579 21 6.5C21 7.91421 21 8.62132 20.5607 9.06066C20.1213 9.5 19.4142 9.5 18 9.5C16.5858 9.5 15.8787 9.5 15.4393 9.06066C15 8.62132 15 7.91421 15 6.5Z" stroke="black" stroke-width="1.5"/>
<path d="M21 12.5H15C13.5858 12.5 12.8787 12.5 12.4393 12.9393C12 13.3787 12 14.0858 12 15.5M12 18.2692V21.0385M15 15.5V17C15 18.4464 15.7837 18.5 17 18.5C17.5523 18.5 18 18.9477 18 19.5M16 21.5H15M18 15.5C19.4142 15.5 20.1213 15.5 20.5607 15.94C21 16.3799 21 17.0881 21 18.5043C21 19.9206 21 20.6287 20.5607 21.0687C20.24 21.3898 19.7767 21.4766 19 21.5" stroke="black" stroke-width="1.5" stroke-linecap="round"/>
</svg>
