<svg width="22" height="22" viewBox="0 0 22 22" fill="none" xmlns="http://www.w3.org/2000/svg">
<path d="M16.7823 15.3094L21.2437 19.7698L19.7698 21.2437L15.3094 16.7823C13.6497 18.1127 11.5854 18.8363 9.45831 18.8333C4.28331 18.8333 0.083313 14.6333 0.083313 9.45831C0.083313 4.28331 4.28331 0.083313 9.45831 0.083313C14.6333 0.083313 18.8333 4.28331 18.8333 9.45831C18.8363 11.5854 18.1127 13.6497 16.7823 15.3094ZM14.6927 14.5364C16.0147 13.1769 16.753 11.3546 16.75 9.45831C16.75 5.42915 13.4864 2.16665 9.45831 2.16665C5.42915 2.16665 2.16665 5.42915 2.16665 9.45831C2.16665 13.4864 5.42915 16.75 9.45831 16.75C11.3546 16.753 13.1769 16.0147 14.5364 14.6927L14.6927 14.5364Z" fill="#000"/>
</svg>
