<svg width="47" height="45" viewBox="0 0 47 45" fill="none" xmlns="http://www.w3.org/2000/svg">
<circle cx="23.5" cy="22.5" r="22.5" fill="#F0F1FF"/>
<path d="M27.4531 25.2969C27.8846 25.2969 28.2344 24.9471 28.2344 24.5156C28.2344 24.0842 27.8846 23.7344 27.4531 23.7344C27.0217 23.7344 26.6719 24.0842 26.6719 24.5156C26.6719 24.9471 27.0217 25.2969 27.4531 25.2969Z" fill="black"/>
<path d="M30.9688 25.1406C31.4002 25.1406 31.75 24.7909 31.75 24.3594V21.4688C31.75 19.7456 30.3481 18.3438 28.625 18.3438H27.6861V15.5885C27.6861 13.0584 25.5832 11 22.9986 11C20.4139 11 18.3111 13.0584 18.3111 15.5885V18.3438H17.375C15.6519 18.3438 14.25 19.7456 14.25 21.4688V27.875C14.25 29.5981 15.6519 31 17.375 31H28.625C30.3481 31 31.75 29.5981 31.75 27.875C31.75 27.4435 31.4002 27.0938 30.9688 27.0938C30.5373 27.0938 30.1875 27.4435 30.1875 27.875C30.1875 28.7366 29.4866 29.4375 28.625 29.4375H17.375C16.5134 29.4375 15.8125 28.7366 15.8125 27.875V21.4688C15.8125 20.6072 16.5134 19.9062 17.375 19.9062H28.625C29.4866 19.9062 30.1875 20.6072 30.1875 21.4688V24.3594C30.1875 24.7909 30.5373 25.1406 30.9688 25.1406ZM26.1236 18.3438H19.8736V15.5885C19.8736 13.92 21.2754 12.5625 22.9986 12.5625C24.7217 12.5625 26.1236 13.92 26.1236 15.5885V18.3438Z" fill="black"/>
<path d="M21.5547 25.2969C21.9862 25.2969 22.3359 24.9471 22.3359 24.5156C22.3359 24.0842 21.9862 23.7344 21.5547 23.7344C21.1232 23.7344 20.7734 24.0842 20.7734 24.5156C20.7734 24.9471 21.1232 25.2969 21.5547 25.2969Z" fill="black"/>
<path d="M18.625 25.2969C19.0565 25.2969 19.4062 24.9471 19.4062 24.5156C19.4062 24.0842 19.0565 23.7344 18.625 23.7344C18.1935 23.7344 17.8438 24.0842 17.8438 24.5156C17.8438 24.9471 18.1935 25.2969 18.625 25.2969Z" fill="black"/>
<path d="M24.4844 25.2969C24.9158 25.2969 25.2656 24.9471 25.2656 24.5156C25.2656 24.0842 24.9158 23.7344 24.4844 23.7344C24.0529 23.7344 23.7031 24.0842 23.7031 24.5156C23.7031 24.9471 24.0529 25.2969 24.4844 25.2969Z" fill="black"/>
</svg>
