<svg width="47" height="45" viewBox="0 0 47 45" fill="none" xmlns="http://www.w3.org/2000/svg">
<circle cx="23.5" cy="22.5" r="22.5" fill="#F0F1FF"/>
<g clip-path="url(#clip0_0_1211)">
<path d="M23 13C17.473 13 13 17.4725 13 23C13 28.5269 17.4725 33 23 33C28.527 33 33 28.5275 33 23C33 17.473 28.5275 13 23 13ZM23 31.6046C18.2554 31.6046 14.3954 27.7446 14.3954 23C14.3954 18.2554 18.2554 14.3954 23 14.3954C27.7446 14.3954 31.6046 18.2554 31.6046 23C31.6046 27.7446 27.7446 31.6046 23 31.6046Z" fill="black"/>
<path d="M22.704 25.6533C22.1512 25.6533 21.7036 26.114 21.7036 26.6668C21.7036 27.2065 22.138 27.6804 22.704 27.6804C23.27 27.6804 23.7175 27.2065 23.7175 26.6668C23.7175 26.114 23.2568 25.6533 22.704 25.6533Z" fill="black"/>
<path d="M22.8751 17.9792C21.0981 17.9792 20.282 19.0323 20.282 19.7431C20.282 20.2565 20.7164 20.4934 21.0717 20.4934C21.7826 20.4934 21.493 19.4798 22.8356 19.4798C23.4937 19.4798 24.0203 19.7694 24.0203 20.375C24.0203 21.0857 23.2832 21.4938 22.8488 21.8623C22.467 22.1914 21.9669 22.7311 21.9669 23.8631C21.9669 24.5476 22.1512 24.745 22.6908 24.745C23.3358 24.745 23.4674 24.4555 23.4674 24.2053C23.4674 23.5208 23.4806 23.126 24.2046 22.56C24.56 22.2835 25.6788 21.3884 25.6788 20.1511C25.6788 18.9138 24.56 17.9792 22.8751 17.9792Z" fill="black"/>
</g>
<defs>
<clipPath id="clip0_0_1211">
<rect width="20" height="20" fill="white" transform="translate(13 13)"/>
</clipPath>
</defs>
</svg>
