<svg width="47" height="45" viewBox="0 0 47 45" fill="none" xmlns="http://www.w3.org/2000/svg">
<circle cx="23.5" cy="22.5" r="22.5" fill="#F0F1FF"/>
<path d="M27.2059 19.5V17.75C27.2059 17.2859 27.02 16.8408 26.689 16.5126C26.3581 16.1844 25.9092 16 25.4412 16H19.2647C18.7967 16 18.3478 16.1844 18.0169 16.5126C17.6859 16.8408 17.5 17.2859 17.5 17.75V28.25C17.5 28.7141 17.6859 29.1592 18.0169 29.4874C18.3478 29.8156 18.7967 30 19.2647 30H25.4412C25.9092 30 26.3581 29.8156 26.689 29.4874C27.02 29.1592 27.2059 28.7141 27.2059 28.25V26.5M21.9118 23H32.5M32.5 23L29.8529 20.375M32.5 23L29.8529 25.625" stroke="black" stroke-width="1.33333" stroke-linecap="round" stroke-linejoin="round"/>
</svg>