<svg width="47" height="45" viewBox="0 0 47 45" fill="none" xmlns="http://www.w3.org/2000/svg">
<circle cx="23.5" cy="22.5" r="22.5" fill="#F0F1FF"/>
<path d="M31.092 16.5171C29.6372 16.5171 28.3032 15.6627 27.6935 14.3406C27.5978 14.133 27.39 14 27.1614 14H18.8385C18.6099 14 18.4022 14.133 18.3064 14.3406C17.6967 15.6627 16.3628 16.5171 14.908 16.5171C14.5844 16.5171 14.322 16.7794 14.322 17.103V21.9971C14.322 24.1189 14.8782 26.2142 15.9305 28.0566C16.9827 29.8991 18.5048 31.4427 20.3323 32.5207L22.7023 33.9188C22.7941 33.9729 22.897 34 23 34C23.1029 34 23.2058 33.9729 23.2976 33.9188L25.6676 32.5207C27.495 31.4427 29.0172 29.8991 30.0694 28.0566C31.1217 26.2142 31.6779 24.1189 31.6779 21.9971V17.103C31.6779 16.7794 31.4156 16.5171 31.092 16.5171ZM30.506 21.9971C30.506 25.8886 28.4239 29.5342 25.0722 31.5114L23 32.7338L20.9278 31.5114C17.576 29.5342 15.4939 25.8886 15.4939 21.9971V17.6536C17.0448 17.4658 18.4301 16.542 19.1971 15.1719H26.8028C27.5699 16.542 28.9551 17.4659 30.506 17.6536V21.9971Z" fill="black"/>
<path d="M22.9996 17.9453C20.0941 17.9453 17.7302 20.311 17.7302 23.2188C17.7302 25.1175 18.7383 26.7849 20.2469 27.7136C20.2716 27.7311 20.2975 27.747 20.325 27.7606C21.1095 28.2251 22.0239 28.4922 22.9997 28.4922C23.9754 28.4922 24.8898 28.2251 25.6744 27.7606C25.7018 27.747 25.7278 27.7311 25.7525 27.7136C27.261 26.7849 28.2691 25.1175 28.2691 23.2188C28.2691 20.311 25.9052 17.9453 22.9996 17.9453ZM21.2375 26.9212C21.4627 26.156 22.1766 25.5983 22.9996 25.5983C23.8227 25.5983 24.5366 26.156 24.7618 26.9212C24.2277 27.1769 23.6301 27.3203 22.9996 27.3203C22.3692 27.3203 21.7716 27.1769 21.2375 26.9212ZM21.9876 23.413C21.9876 22.8542 22.4416 22.3996 22.9996 22.3996C23.5577 22.3996 24.0117 22.8542 24.0117 23.413C24.0117 23.9718 23.5577 24.4264 22.9996 24.4264C22.4416 24.4264 21.9876 23.9718 21.9876 23.413ZM25.7627 26.2448C25.5982 25.863 25.3546 25.5164 25.043 25.2276C24.9068 25.1014 24.7605 24.9892 24.6061 24.8914C24.9644 24.502 25.1836 23.9827 25.1836 23.413C25.1836 22.208 24.2039 21.2277 22.9996 21.2277C21.7954 21.2277 20.8157 22.208 20.8157 23.413C20.8157 23.9827 21.0349 24.502 21.3932 24.8914C21.2388 24.9892 21.0925 25.1014 20.9562 25.2276C20.6446 25.5164 20.401 25.863 20.2366 26.2448C19.4169 25.4943 18.9021 24.4156 18.9021 23.2188C18.9021 20.9571 20.7402 19.1172 22.9996 19.1172C25.259 19.1172 27.0971 20.9571 27.0971 23.2188C27.0972 24.4156 26.5823 25.4943 25.7627 26.2448Z" fill="black"/>
</svg>