<svg width="46" height="45" viewBox="0 0 46 45" fill="none" xmlns="http://www.w3.org/2000/svg">
<circle cx="23" cy="22.5" r="22.5" fill="#F0F1FF"/>
<g clip-path="url(#clip0_0_1179)">
<path d="M31.615 14.885C29.1016 12.3716 25.012 12.3717 22.4986 14.885C20.7819 16.6017 20.1858 19.1321 20.9288 21.4273L13.6717 28.6845C13.5618 28.7944 13.5 28.9435 13.5 29.0989V32.414C13.5 32.7377 13.7624 33 14.086 33H17.4011C17.5566 33 17.7055 32.9382 17.8155 32.8283L18.6444 31.9994C18.771 31.8728 18.8328 31.6952 18.8121 31.5173L18.7087 30.6274L19.9424 30.5111C20.2226 30.4847 20.4445 30.2628 20.4709 29.9827L20.5872 28.7488L21.4773 28.8522C21.6434 28.8716 21.8098 28.819 21.9347 28.7078C22.0595 28.5966 22.131 28.4373 22.131 28.2701V27.1788H23.2025C23.3567 27.1788 23.5047 27.118 23.6145 27.0095L25.0704 25.5704C27.3662 26.3146 29.8979 25.7186 31.615 24.0014C34.1283 21.488 34.1283 17.3984 31.615 14.885ZM30.7862 23.1727C29.3071 24.6518 27.0883 25.1135 25.1337 24.349C24.918 24.2647 24.673 24.3152 24.5083 24.478L22.9617 26.0068H21.5449C21.2213 26.0068 20.9589 26.2691 20.9589 26.5928V27.612L20.1277 27.5154C19.9711 27.4973 19.8138 27.5429 19.6912 27.642C19.5687 27.7412 19.4913 27.8855 19.4765 28.0425L19.3495 29.3897L18.0023 29.5167C17.8454 29.5315 17.7011 29.6089 17.6018 29.7314C17.5027 29.8539 17.457 30.0112 17.4752 30.1678L17.6151 31.3711L17.1583 31.828H14.672V29.3417L22.0195 21.9942C22.1841 21.8296 22.2357 21.5831 22.1509 21.3663C21.3864 19.4117 21.8482 17.193 23.3273 15.7139C25.3837 13.6575 28.7298 13.6575 30.7862 15.7139C32.8426 17.7702 32.8426 21.1163 30.7862 23.1727Z" fill="black"/>
<path d="M29.9574 16.5426C29.272 15.8571 28.1566 15.8571 27.4711 16.5426C26.7857 17.2281 26.7857 18.3434 27.4711 19.0289C28.1566 19.7143 29.272 19.7144 29.9574 19.0289C30.6429 18.3434 30.6429 17.2281 29.9574 16.5426ZM29.1287 18.2001C28.9002 18.4286 28.5284 18.4286 28.2999 18.2001C28.0714 17.9717 28.0714 17.5999 28.2999 17.3714C28.529 17.1423 28.8996 17.1423 29.1287 17.3714C29.3577 17.6004 29.3577 17.9711 29.1287 18.2001Z" fill="black"/>
</g>
<defs>
<clipPath id="clip0_0_1179">
<rect width="20" height="20" fill="white" transform="translate(13.5 13)"/>
</clipPath>
</defs>
</svg>