<svg width="16" height="15" viewBox="0 0 16 15" fill="none" xmlns="http://www.w3.org/2000/svg">
<g clip-path="url(#clip0_0_1189)">
<path d="M4.76922 6.67572e-06C4.85147 -0.000469208 4.93301 0.015296 5.00916 0.0463991C5.08531 0.0775023 5.15457 0.123331 5.21297 0.181257L10.3192 5.28751C10.6102 5.57779 10.8411 5.92264 10.9987 6.3023C11.1562 6.68195 11.2373 7.08896 11.2373 7.50001C11.2373 7.91105 11.1562 8.31806 10.9987 8.69772C10.8411 9.07737 10.6102 9.42222 10.3192 9.71251L5.21297 14.8188C5.1547 14.877 5.08551 14.9233 5.00937 14.9548C4.93324 14.9863 4.85163 15.0026 4.76922 15.0026C4.68681 15.0026 4.6052 14.9863 4.52906 14.9548C4.45292 14.9233 4.38374 14.877 4.32547 14.8188C4.26719 14.7605 4.22097 14.6913 4.18943 14.6152C4.15789 14.539 4.14166 14.4574 4.14166 14.375C4.14166 14.2926 4.15789 14.211 4.18943 14.1349C4.22097 14.0587 4.26719 13.9895 4.32547 13.9313L9.43172 8.82501C9.78284 8.47344 9.98007 7.99688 9.98007 7.50001C9.98007 7.00313 9.78284 6.52657 9.43172 6.17501L4.32547 1.06876C4.26689 1.01065 4.22039 0.941529 4.18866 0.865367C4.15693 0.789205 4.14059 0.707514 4.14059 0.625007C4.14059 0.542499 4.15693 0.460808 4.18866 0.384645C4.22039 0.308484 4.26689 0.239359 4.32547 0.181257C4.38387 0.123331 4.45313 0.0775023 4.52928 0.0463991C4.60542 0.015296 4.68696 -0.000469208 4.76922 6.67572e-06Z" fill="black"/>
</g>
<defs>
<clipPath id="clip0_0_1189">
<rect width="15" height="15" fill="white" transform="matrix(-1 0 0 -1 15.5 15)"/>
</clipPath>
</defs>
</svg>