<svg width="10" height="11" viewBox="0 0 10 11" fill="none" xmlns="http://www.w3.org/2000/svg">
<path d="M5 10.8125C5.98891 10.8125 6.95561 10.5193 7.77785 9.96984C8.6001 9.42044 9.24096 8.63955 9.6194 7.72592C9.99783 6.81229 10.0969 5.80695 9.90392 4.83705C9.711 3.86714 9.23479 2.97623 8.53553 2.27697C7.83627 1.57771 6.94536 1.1015 5.97545 0.908576C5.00555 0.71565 4.00021 0.814666 3.08658 1.1931C2.17295 1.57154 1.39206 2.2124 0.842655 3.03465C0.293249 3.85689 3.8147e-06 4.82359 3.8147e-06 5.8125C0.00143719 7.13814 0.528682 8.40908 1.46605 9.34645C2.40342 10.2838 3.67436 10.8111 5 10.8125ZM5 1.64584C5.82409 1.64584 6.62967 1.89021 7.31488 2.34804C8.00008 2.80588 8.53413 3.45663 8.8495 4.21799C9.16486 4.97934 9.24738 5.81712 9.0866 6.62538C8.92583 7.43363 8.529 8.17606 7.94628 8.75878C7.36356 9.34149 6.62113 9.73833 5.81288 9.8991C5.00462 10.0599 4.16685 9.97736 3.40549 9.662C2.64413 9.34663 1.99339 8.81258 1.53555 8.12737C1.07771 7.44217 0.833337 6.63659 0.833337 5.8125C0.83455 4.7078 1.27393 3.6487 2.05506 2.86756C2.8362 2.08642 3.8953 1.64705 5 1.64584Z" fill="#000000"/>
<path d="M4.58366 2.89551H5.41699V7.06217H4.58366V2.89551Z" fill="#000000"/>
<path d="M4.58366 7.89551H5.41699V8.72884H4.58366V7.89551Z" fill="#000000"/>
</svg>
